<svg width="24" height="24" viewBox="0 0 24 24" fill="none" xmlns="http://www.w3.org/2000/svg">
<path d="M17.6965 3.61747C18.9821 2.3226 21.0664 2.3226 22.352 3.61746C23.6375 4.91232 23.6375 7.01171 22.352 8.30657L12.4813 18.2485C11.1957 19.5434 9.11141 19.5434 7.82583 18.2485C6.54025 16.9536 6.54025 14.8543 7.82583 13.5594L17.6965 3.61747Z" fill="#000AFF"/>
<path d="M19.1662 9.9173C20.27 8.8055 22.0597 8.8055 23.1635 9.9173C24.2674 11.0291 24.2674 12.8317 23.1635 13.9435L15.3288 21.8349C14.2249 22.9467 12.4353 22.9467 11.3314 21.8349C10.2276 20.7231 10.2276 18.9205 11.3314 17.8087L19.1662 9.9173Z" fill="#FFE000"/>
<path d="M13.1098 1.7084C14.2576 0.552277 16.1186 0.552277 17.2665 1.7084C18.4143 2.86453 18.4143 4.73898 17.2665 5.89511L8.47435 14.7507C7.32652 15.9069 5.4655 15.9069 4.31767 14.7507C3.16983 13.5946 3.16983 11.7202 4.31767 10.564L13.1098 1.7084Z" fill="#6200FF"/>
<path d="M16.0442 14.7444L15.2129 13.9081C16.1702 12.9451 18.2207 10.8062 19.0672 9.95472C19.8229 9.19445 20.8053 8.96636 21.5611 9.11842L16.0442 14.7444Z" fill="#C5B350"/>
<path d="M11.283 10.0307L12.2655 10.9431L17.3289 5.84926C18.0847 5.08899 18.2358 4.02462 18.0847 3.26435L17.9938 3.34037L16.7243 4.55681L11.283 10.0307Z" fill="#002EA3"/>
<path d="M7.39905 6.01112C7.37244 5.98296 7.3454 5.95505 7.31795 5.92739C5.59346 4.19045 2.85555 4.13198 1.20267 5.7968C-0.433765 7.44506 -0.393157 10.1645 1.28132 11.9041L1.27994 11.9055L11.9017 22.604C12.6363 23.3439 13.8273 23.3439 14.5619 22.604L17.8873 19.2546C18.6219 18.5147 18.6219 17.315 17.8873 16.5751L7.39905 6.01112Z" fill="#FF0055"/>
</svg>
