<svg width="273" height="43" viewBox="0 0 273 43" fill="none" xmlns="http://www.w3.org/2000/svg">
<path d="M34.0558 5.31781C36.5298 2.83747 40.541 2.83746 43.015 5.3178C45.489 7.79815 45.489 11.8196 43.015 14.2999L24.0195 33.344C21.5455 35.8243 17.5343 35.8243 15.0603 33.344C12.5863 30.8636 12.5863 26.8422 15.0603 24.3619L34.0558 5.31781Z" fill="white"/>
<path d="M36.8842 17.3853C39.0084 15.2556 42.4525 15.2556 44.5768 17.3853C46.7011 19.515 46.7011 22.9679 44.5768 25.0976L29.4992 40.2138C27.375 42.3435 23.9309 42.3435 21.8066 40.2138C19.6824 38.0841 19.6824 34.6312 21.8066 32.5015L36.8842 17.3853Z" fill="white"/>
<path d="M25.229 1.66095C27.4379 -0.553648 31.0193 -0.553649 33.2283 1.66094C35.4372 3.87554 35.4372 7.46611 33.2283 9.6807L16.3084 26.6439C14.0994 28.8585 10.518 28.8585 8.30908 26.6439C6.10014 24.4293 6.10014 20.8387 8.30908 18.6241L25.229 1.66095Z" fill="white"/>
<path d="M30.8761 26.6318L29.2763 25.0299C31.1185 23.1852 35.0647 19.0881 36.6936 17.457C38.1479 16.0007 40.0386 15.5638 41.493 15.8551L30.8761 26.6318Z" fill="#5001FF"/>
<path d="M21.7135 17.6026L23.6042 19.3502L33.3485 9.59288C34.8028 8.13656 35.0937 6.09772 34.8029 4.6414L34.6279 4.78703L32.1849 7.11714L21.7135 17.6026Z" fill="#5001FF"/>
<path d="M14.239 9.90293C14.1878 9.84898 14.1358 9.79551 14.0829 9.74254C10.7643 6.41537 5.49534 6.30338 2.31446 9.4924C-0.834754 12.6497 -0.756607 17.8589 2.46582 21.1911L2.46316 21.1937L22.904 41.687C24.3177 43.1043 26.6098 43.1043 28.0236 41.687L34.423 35.2712C35.8367 33.8538 35.8367 31.5559 34.423 30.1385L14.239 9.90293Z" fill="white"/>
<path d="M100.716 7.61957C100.716 5.58061 99.0931 3.92771 97.0908 3.92771H96.124C94.1217 3.92771 92.4985 5.58061 92.4985 7.61956V21.944C92.4985 27.0633 89.6948 30.9767 85.3926 30.9767C81.0903 30.9767 78.335 27.0633 78.335 21.944V7.61956C78.335 5.58061 76.7118 3.92771 74.7095 3.92771H73.7427C71.7404 3.92771 70.1172 5.58061 70.1172 7.61957V21.7963C70.1172 32.1827 75.9908 38.828 85.3687 38.828C94.795 38.828 100.716 32.1827 100.716 21.7963V7.61957Z" fill="white"/>
<path d="M109.721 3.875C107.718 3.875 106.123 5.60174 106.123 7.64069V34.9604C106.123 36.9994 107.746 38.7753 109.749 38.7753H114.293V28.9058H118.692C127.683 28.9058 133.29 24.0325 133.29 16.2058C133.29 8.67441 127.897 3.875 119.34 3.875H109.721ZM114.293 21.6205V11.2833H119.175C122.8 11.2833 125.121 13.2031 125.121 16.2058C125.121 19.5039 122.8 21.6205 119.175 21.6205H114.293Z" fill="white"/>
<path d="M141.847 3.875C139.596 3.875 137.346 5.81665 137.346 8.55882V34.5374C137.346 36.781 139.204 38.7753 141.597 38.7753H150.83C161.127 38.7753 168.582 30.4563 168.582 20.513C168.582 10.7172 161.138 3.875 150.841 3.875H141.847ZM145.766 30.481V11.3572H150.841C156.159 11.3572 160.268 15.3444 160.268 20.513C160.268 25.8292 156.159 30.481 150.841 30.481H145.766Z" fill="white"/>
<path d="M188.709 3.96655C178.799 3.96655 171.307 11.6456 171.307 21.3921C171.307 31.1386 178.799 38.875 188.709 38.875C198.667 38.875 206.16 31.1386 206.16 21.3921C206.16 11.6456 198.667 3.96655 188.709 3.96655ZM188.709 31.0894C183.392 31.0894 179.573 26.6591 179.573 21.3921C179.573 16.1251 183.392 11.6948 188.709 11.6948C194.026 11.6948 197.845 16.1251 197.845 21.3921C197.845 26.6591 194.026 31.0894 188.709 31.0894Z" fill="white"/>
<path d="M268.998 11.3818C271.001 11.3818 272.749 9.65328 272.749 7.61432C272.749 5.57537 271.001 3.875 268.998 3.875H247.454C245.329 3.875 243.746 5.66803 243.746 7.61432C243.746 9.56061 245.284 11.3536 247.534 11.3818H254.236V34.9604C254.236 36.9994 255.859 38.7753 257.861 38.7753H262.405V11.3818L268.998 11.3818Z" fill="white"/>
<path d="M226.546 3.96654C216.636 3.96654 209.144 11.6456 209.144 21.3921C209.144 31.1386 216.636 38.875 226.546 38.875C236.504 38.875 243.997 31.1386 243.997 21.3921C243.997 11.6456 236.504 3.96654 226.546 3.96654ZM226.546 31.0894C221.229 31.0894 217.41 26.6591 217.41 21.3921C217.41 16.125 221.229 11.6948 226.546 11.6948C231.863 11.6948 235.682 16.125 235.682 21.3921C235.682 26.6591 231.863 31.0894 226.546 31.0894Z" fill="white"/>
</svg>
