<svg width="100" height="76" viewBox="0 0 440 76" fill="none" xmlns="http://www.w3.org/2000/svg">
<path d="M66.4438 8.13106C66.4438 3.70362 62.9192 0.114457 58.5713 0.114457H56.472C52.1241 0.114457 48.5995 3.70361 48.5995 8.13105V39.2355C48.5995 50.3518 42.5114 58.8494 33.1694 58.8494C23.8274 58.8494 17.8443 50.3518 17.8443 39.2355V8.13105C17.8443 3.7036 14.3197 0.114457 9.97182 0.114457H7.87249C3.52463 0.114457 0 3.70361 0 8.13106V38.9148C0 61.4681 12.7541 75.898 33.1176 75.898C53.5861 75.898 66.4438 61.4681 66.4438 38.9148V8.13106Z" fill="black"/>
<path d="M85.9962 9.50194e-06C81.6484 9.50194e-06 78.1846 3.74949 78.1846 8.17694V67.4998C78.1846 71.9272 81.7092 75.7836 86.057 75.7836H95.9239V54.3525H105.476C125 54.3525 137.176 43.7706 137.176 26.7754C137.176 10.4216 125.464 9.50194e-06 106.885 9.50194e-06H85.9962ZM95.9239 38.5331V16.0866H106.526C114.398 16.0866 119.436 20.2553 119.436 26.7754C119.436 33.9369 114.398 38.5331 106.526 38.5331H95.9239Z" fill="black"/>
<path d="M155.755 0C150.869 0 145.983 4.21616 145.983 10.1706V66.5813C145.983 71.4531 150.016 75.7836 155.212 75.7836H175.263C197.621 75.7836 213.809 57.7195 213.809 36.1281C213.809 14.8574 197.645 0 175.287 0H155.755ZM164.265 57.7729V16.247H175.287C186.833 16.247 195.755 24.9049 195.755 36.1281C195.755 47.672 186.833 57.7729 175.287 57.7729H164.265Z" fill="black"/>
<path d="M257.513 0.198805C235.995 0.198805 219.725 16.8733 219.725 38.0371C219.725 59.201 235.995 76 257.513 76C279.137 76 295.406 59.201 295.406 38.0371C295.406 16.8733 279.137 0.198805 257.513 0.198805ZM257.513 59.0941C245.967 59.0941 237.675 49.4741 237.675 38.0371C237.675 26.6001 245.967 16.9802 257.513 16.9802C269.06 16.9802 277.352 26.6001 277.352 38.0371C277.352 49.4741 269.06 59.0941 257.513 59.0941Z" fill="black"/>
<path d="M431.856 16.3005C436.204 16.3005 440 12.5471 440 8.11967C440 3.69222 436.204 0 431.856 0H385.074C380.459 0 377.022 3.89344 377.022 8.11967C377.022 12.3459 380.362 16.2393 385.249 16.3005H399.8V67.4998C399.8 71.9272 403.325 75.7836 407.672 75.7836H417.539V16.3005L431.856 16.3005Z" fill="black"/>
<path d="M339.674 0.198768C318.156 0.198768 301.886 16.8733 301.886 38.0371C301.886 59.2009 318.156 76 339.674 76C361.297 76 377.567 59.2009 377.567 38.0371C377.567 16.8733 361.297 0.198768 339.674 0.198768ZM339.674 59.094C328.128 59.094 319.836 49.4741 319.836 38.0371C319.836 26.6001 328.128 16.9802 339.674 16.9802C351.221 16.9802 359.513 26.6001 359.513 38.0371C359.513 49.4741 351.221 59.094 339.674 59.094Z" fill="black"/>
</svg>
