<svg width="22" height="24" viewBox="0 0 22 24" fill="none" xmlns="http://www.w3.org/2000/svg">
<path d="M16.9382 7.35396C16.9382 5.69262 16.2781 4.09931 15.1031 2.92456C13.9281 1.74981 12.3344 1.08984 10.6727 1.08984C9.011 1.08984 7.41734 1.74981 6.24233 2.92456C5.06732 4.09931 4.4072 5.69262 4.4072 7.35396C4.4072 14.6621 1.27444 16.7501 1.27444 16.7501H20.071C20.071 16.7501 16.9382 14.6621 16.9382 7.35396Z" stroke="#F4F0FB" stroke-width="2.09286" stroke-linecap="round" stroke-linejoin="round"/>
<path d="M12.4793 20.9268C12.2957 21.2432 12.0322 21.5058 11.7151 21.6884C11.3981 21.871 11.0386 21.9671 10.6727 21.9671C10.3068 21.9671 9.94738 21.871 9.63033 21.6884C9.31328 21.5058 9.04977 21.2432 8.86618 20.9268" stroke="#F4F0FB" stroke-width="2.09286" stroke-linecap="round" stroke-linejoin="round"/>
</svg>
