<svg width="366" height="340" viewBox="0 0 366 340" fill="none" xmlns="http://www.w3.org/2000/svg">
<path d="M58.4647 57.9999C96.7372 51.5 115.737 77 125.737 87.5C152.25 58.9874 181.465 31.5 195.465 17.5C209.465 3.5 222.965 0.999984 231.465 1C260.689 1.00006 272.071 25.1667 274.237 37C305.837 15.8 333.674 36.1204 342.737 49C361.737 76 352.965 101 340.465 113.5C334.965 119 329.237 126 329.237 126C341.237 127.6 348.37 135.014 352.965 139.5C373.965 160 361.965 190 351.465 200.5C318.965 233 240.465 311.4 222.465 329C204.465 346.6 186.298 337 179.465 330C130.798 281.333 30.1749 182.232 20.9647 171.5C10.2372 159 -0.762803 140 1.2372 115C3.2372 90 21.8673 64.2154 58.4647 57.9999Z" fill="white" stroke="white" stroke-width="1.5" stroke-linejoin="round"/>
<path d="M265.903 47.5522C284.658 28.6377 315.065 28.6377 333.82 47.5521C352.575 66.4666 352.575 97.133 333.82 116.047L189.822 261.272C171.067 280.187 140.659 280.187 121.905 261.272C103.15 242.358 103.15 211.691 121.905 192.777L265.903 47.5522Z" fill="#000AFF"/>
<path d="M287.344 139.576C303.448 123.335 329.556 123.335 345.66 139.576C361.763 155.816 361.763 182.147 345.66 198.388L231.362 313.659C215.258 329.9 189.15 329.9 173.046 313.659C156.943 297.419 156.943 271.088 173.046 254.847L287.344 139.576Z" fill="#FFE000"/>
<path d="M198.99 19.6659C215.735 2.77803 242.885 2.77802 259.63 19.6659C276.375 36.5538 276.375 63.9345 259.63 80.8224L131.366 210.179C114.62 227.067 87.471 227.067 70.7257 210.179C53.9804 193.291 53.9804 165.911 70.7257 149.023L198.99 19.6659Z" fill="#6200FF"/>
<path d="M241.799 210.087L229.671 197.871C243.636 183.804 273.551 152.561 285.899 140.122C296.924 129.017 311.257 125.685 322.282 127.906L241.799 210.087Z" fill="#C5B350"/>
<path d="M172.341 141.233L186.673 154.56L260.541 80.1527C271.566 69.0472 273.772 53.4996 271.567 42.3941L270.24 43.5046L251.721 61.2734L172.341 141.233Z" fill="#002EA3"/>
<path d="M115.679 82.5171C115.29 82.1057 114.896 81.6979 114.495 81.294C89.3376 55.9219 49.3956 55.0679 25.2824 79.3865C1.40918 103.463 2.00159 143.187 26.4298 168.597L26.4096 168.618L181.365 324.894C192.082 335.702 209.458 335.702 220.175 324.894L268.687 275.969C279.404 265.16 279.404 247.637 268.687 236.828L115.679 82.5171Z" fill="#FF0055"/>
</svg>
