<svg width="25" height="24" viewBox="0 0 25 24" fill="none" xmlns="http://www.w3.org/2000/svg">
<g clip-path="url(#clip0_102_2306)">
<path d="M12.0095 15C13.6664 15 15.0095 13.6569 15.0095 12C15.0095 10.3431 13.6664 9 12.0095 9C10.3527 9 9.00952 10.3431 9.00952 12C9.00952 13.6569 10.3527 15 12.0095 15Z" stroke="white" stroke-width="2" stroke-linecap="round" stroke-linejoin="round"/>
<path d="M19.4095 15C19.2764 15.3016 19.2367 15.6362 19.2955 15.9606C19.3543 16.285 19.509 16.5843 19.7395 16.82L19.7995 16.88C19.9855 17.0657 20.133 17.2863 20.2336 17.5291C20.3343 17.7719 20.3861 18.0322 20.3861 18.295C20.3861 18.5578 20.3343 18.8181 20.2336 19.0609C20.133 19.3037 19.9855 19.5243 19.7995 19.71C19.6138 19.896 19.3932 20.0435 19.1504 20.1441C18.9076 20.2448 18.6474 20.2966 18.3845 20.2966C18.1217 20.2966 17.8614 20.2448 17.6186 20.1441C17.3758 20.0435 17.1553 19.896 16.9695 19.71L16.9095 19.65C16.6738 19.4195 16.3745 19.2648 16.0501 19.206C15.7257 19.1472 15.3911 19.1869 15.0895 19.32C14.7938 19.4468 14.5415 19.6572 14.3638 19.9255C14.1862 20.1938 14.0908 20.5082 14.0895 20.83V21C14.0895 21.5304 13.8788 22.0391 13.5037 22.4142C13.1287 22.7893 12.62 23 12.0895 23C11.5591 23 11.0504 22.7893 10.6753 22.4142C10.3002 22.0391 10.0895 21.5304 10.0895 21V20.91C10.0818 20.579 9.97464 20.258 9.78203 19.9887C9.58942 19.7194 9.32026 19.5143 9.00952 19.4C8.70791 19.2669 8.37333 19.2272 8.04893 19.286C7.72454 19.3448 7.4252 19.4995 7.18952 19.73L7.12952 19.79C6.94378 19.976 6.7232 20.1235 6.4804 20.2241C6.23761 20.3248 5.97735 20.3766 5.71452 20.3766C5.45169 20.3766 5.19144 20.3248 4.94864 20.2241C4.70584 20.1235 4.48527 19.976 4.29952 19.79C4.11357 19.6043 3.96605 19.3837 3.8654 19.1409C3.76475 18.8981 3.71295 18.6378 3.71295 18.375C3.71295 18.1122 3.76475 17.8519 3.8654 17.6091C3.96605 17.3663 4.11357 17.1457 4.29952 16.96L4.35952 16.9C4.59006 16.6643 4.74471 16.365 4.80353 16.0406C4.86234 15.7162 4.82264 15.3816 4.68952 15.08C4.56276 14.7842 4.35228 14.532 4.08399 14.3543C3.8157 14.1766 3.50131 14.0813 3.17952 14.08H3.00952C2.47909 14.08 1.97038 13.8693 1.59531 13.4942C1.22024 13.1191 1.00952 12.6104 1.00952 12.08C1.00952 11.5496 1.22024 11.0409 1.59531 10.6658C1.97038 10.2907 2.47909 10.08 3.00952 10.08H3.09952C3.43052 10.0723 3.75153 9.96512 4.02082 9.77251C4.29011 9.5799 4.49524 9.31074 4.60952 9C4.74264 8.69838 4.78234 8.36381 4.72353 8.03941C4.66471 7.71502 4.51006 7.41568 4.27952 7.18L4.21952 7.12C4.03357 6.93425 3.88605 6.71368 3.7854 6.47088C3.68475 6.22808 3.63295 5.96783 3.63295 5.705C3.63295 5.44217 3.68475 5.18192 3.7854 4.93912C3.88605 4.69632 4.03357 4.47575 4.21952 4.29C4.40527 4.10405 4.62584 3.95653 4.86864 3.85588C5.11144 3.75523 5.37169 3.70343 5.63452 3.70343C5.89735 3.70343 6.15761 3.75523 6.4004 3.85588C6.6432 3.95653 6.86378 4.10405 7.04952 4.29L7.10952 4.35C7.3452 4.58054 7.64454 4.73519 7.96893 4.794C8.29333 4.85282 8.62791 4.81312 8.92952 4.68H9.00952C9.30529 4.55324 9.55754 4.34276 9.73521 4.07447C9.91289 3.80618 10.0082 3.49179 10.0095 3.17V3C10.0095 2.46957 10.2202 1.96086 10.5953 1.58579C10.9704 1.21071 11.4791 1 12.0095 1C12.54 1 13.0487 1.21071 13.4237 1.58579C13.7988 1.96086 14.0095 2.46957 14.0095 3V3.09C14.0108 3.41179 14.1062 3.72618 14.2838 3.99447C14.4615 4.26276 14.7138 4.47324 15.0095 4.6C15.3111 4.73312 15.6457 4.77282 15.9701 4.714C16.2945 4.65519 16.5938 4.50054 16.8295 4.27L16.8895 4.21C17.0753 4.02405 17.2958 3.87653 17.5386 3.77588C17.7814 3.67523 18.0417 3.62343 18.3045 3.62343C18.5674 3.62343 18.8276 3.67523 19.0704 3.77588C19.3132 3.87653 19.5338 4.02405 19.7195 4.21C19.9055 4.39575 20.053 4.61632 20.1536 4.85912C20.2543 5.10192 20.3061 5.36217 20.3061 5.625C20.3061 5.88783 20.2543 6.14808 20.1536 6.39088C20.053 6.63368 19.9055 6.85425 19.7195 7.04L19.6595 7.1C19.429 7.33568 19.2743 7.63502 19.2155 7.95941C19.1567 8.28381 19.1964 8.61838 19.3295 8.92V9C19.4563 9.29577 19.6668 9.54802 19.9351 9.72569C20.2033 9.90337 20.5177 9.99872 20.8395 10H21.0095C21.54 10 22.0487 10.2107 22.4237 10.5858C22.7988 10.9609 23.0095 11.4696 23.0095 12C23.0095 12.5304 22.7988 13.0391 22.4237 13.4142C22.0487 13.7893 21.54 14 21.0095 14H20.9195C20.5977 14.0013 20.2833 14.0966 20.0151 14.2743C19.7468 14.452 19.5363 14.7042 19.4095 15V15Z" stroke="white" stroke-width="2" stroke-linecap="round" stroke-linejoin="round"/>
</g>
<defs>
<clipPath id="clip0_102_2306">
<rect width="24" height="24" fill="white" transform="translate(0.00952148)"/>
</clipPath>
</defs>
</svg>
